<mxfile host="app.diagrams.net" modified="2022-03-30T10:26:06.791Z" agent="5.0 (Windows NT 10.0; Win64; x64) AppleWebKit/537.36 (KHTML, like Gecko) Chrome/99.0.4844.82 Safari/537.36" etag="M18vo_CCO6j97_WkWdms" version="17.2.6" type="github">
  <diagram id="8jjxDWWBWf0d7ai7I2Dl" name="Page-1">
    <mxGraphModel dx="1209" dy="634" grid="1" gridSize="10" guides="1" tooltips="1" connect="1" arrows="1" fold="1" page="1" pageScale="1" pageWidth="850" pageHeight="1100" math="0" shadow="0">
      <root>
        <mxCell id="0" />
        <mxCell id="1" parent="0" />
        <mxCell id="bhfGCaR0_jflt4qu3ea9-15" style="edgeStyle=orthogonalEdgeStyle;rounded=0;orthogonalLoop=1;jettySize=auto;html=1;exitX=0;exitY=1;exitDx=0;exitDy=0;" edge="1" parent="1" source="bhfGCaR0_jflt4qu3ea9-3" target="bhfGCaR0_jflt4qu3ea9-4">
          <mxGeometry relative="1" as="geometry" />
        </mxCell>
        <mxCell id="bhfGCaR0_jflt4qu3ea9-16" style="edgeStyle=orthogonalEdgeStyle;rounded=0;orthogonalLoop=1;jettySize=auto;html=1;exitX=1;exitY=1;exitDx=0;exitDy=0;entryX=0.5;entryY=0;entryDx=0;entryDy=0;" edge="1" parent="1" source="bhfGCaR0_jflt4qu3ea9-3" target="bhfGCaR0_jflt4qu3ea9-5">
          <mxGeometry relative="1" as="geometry" />
        </mxCell>
        <mxCell id="bhfGCaR0_jflt4qu3ea9-3" value="Idle" style="ellipse;whiteSpace=wrap;html=1;aspect=fixed;" vertex="1" parent="1">
          <mxGeometry x="360" y="120" width="80" height="80" as="geometry" />
        </mxCell>
        <mxCell id="bhfGCaR0_jflt4qu3ea9-8" style="edgeStyle=orthogonalEdgeStyle;rounded=0;orthogonalLoop=1;jettySize=auto;html=1;exitX=0.5;exitY=1;exitDx=0;exitDy=0;entryX=0.5;entryY=0;entryDx=0;entryDy=0;" edge="1" parent="1" source="bhfGCaR0_jflt4qu3ea9-4" target="bhfGCaR0_jflt4qu3ea9-6">
          <mxGeometry relative="1" as="geometry" />
        </mxCell>
        <mxCell id="bhfGCaR0_jflt4qu3ea9-17" style="edgeStyle=orthogonalEdgeStyle;rounded=0;orthogonalLoop=1;jettySize=auto;html=1;exitX=1;exitY=0.5;exitDx=0;exitDy=0;entryX=0.5;entryY=1;entryDx=0;entryDy=0;" edge="1" parent="1" source="bhfGCaR0_jflt4qu3ea9-4" target="bhfGCaR0_jflt4qu3ea9-3">
          <mxGeometry relative="1" as="geometry" />
        </mxCell>
        <mxCell id="bhfGCaR0_jflt4qu3ea9-4" value="Snoop0" style="ellipse;whiteSpace=wrap;html=1;aspect=fixed;" vertex="1" parent="1">
          <mxGeometry x="240" y="280" width="80" height="80" as="geometry" />
        </mxCell>
        <mxCell id="bhfGCaR0_jflt4qu3ea9-9" style="edgeStyle=orthogonalEdgeStyle;rounded=0;orthogonalLoop=1;jettySize=auto;html=1;exitX=0.5;exitY=1;exitDx=0;exitDy=0;entryX=0.5;entryY=0;entryDx=0;entryDy=0;" edge="1" parent="1" source="bhfGCaR0_jflt4qu3ea9-5" target="bhfGCaR0_jflt4qu3ea9-7">
          <mxGeometry relative="1" as="geometry" />
        </mxCell>
        <mxCell id="bhfGCaR0_jflt4qu3ea9-18" style="edgeStyle=orthogonalEdgeStyle;rounded=0;orthogonalLoop=1;jettySize=auto;html=1;exitX=0;exitY=0.5;exitDx=0;exitDy=0;entryX=0.5;entryY=1;entryDx=0;entryDy=0;" edge="1" parent="1" source="bhfGCaR0_jflt4qu3ea9-5" target="bhfGCaR0_jflt4qu3ea9-3">
          <mxGeometry relative="1" as="geometry" />
        </mxCell>
        <mxCell id="bhfGCaR0_jflt4qu3ea9-5" value="Snoop1" style="ellipse;whiteSpace=wrap;html=1;aspect=fixed;" vertex="1" parent="1">
          <mxGeometry x="480" y="280" width="80" height="80" as="geometry" />
        </mxCell>
        <mxCell id="bhfGCaR0_jflt4qu3ea9-12" style="edgeStyle=orthogonalEdgeStyle;rounded=0;orthogonalLoop=1;jettySize=auto;html=1;exitX=0.5;exitY=1;exitDx=0;exitDy=0;entryX=0.5;entryY=1;entryDx=0;entryDy=0;" edge="1" parent="1" source="bhfGCaR0_jflt4qu3ea9-6" target="bhfGCaR0_jflt4qu3ea9-10">
          <mxGeometry relative="1" as="geometry" />
        </mxCell>
        <mxCell id="bhfGCaR0_jflt4qu3ea9-6" value="Update0" style="ellipse;whiteSpace=wrap;html=1;aspect=fixed;" vertex="1" parent="1">
          <mxGeometry x="240" y="440" width="80" height="80" as="geometry" />
        </mxCell>
        <mxCell id="bhfGCaR0_jflt4qu3ea9-19" style="edgeStyle=orthogonalEdgeStyle;rounded=0;orthogonalLoop=1;jettySize=auto;html=1;exitX=0.5;exitY=1;exitDx=0;exitDy=0;entryX=0.5;entryY=1;entryDx=0;entryDy=0;" edge="1" parent="1" source="bhfGCaR0_jflt4qu3ea9-7" target="bhfGCaR0_jflt4qu3ea9-11">
          <mxGeometry relative="1" as="geometry" />
        </mxCell>
        <mxCell id="bhfGCaR0_jflt4qu3ea9-7" value="Update0" style="ellipse;whiteSpace=wrap;html=1;aspect=fixed;" vertex="1" parent="1">
          <mxGeometry x="480" y="440" width="80" height="80" as="geometry" />
        </mxCell>
        <mxCell id="bhfGCaR0_jflt4qu3ea9-13" style="edgeStyle=orthogonalEdgeStyle;rounded=0;orthogonalLoop=1;jettySize=auto;html=1;exitX=0.5;exitY=0;exitDx=0;exitDy=0;entryX=0;entryY=0.5;entryDx=0;entryDy=0;" edge="1" parent="1" source="bhfGCaR0_jflt4qu3ea9-10" target="bhfGCaR0_jflt4qu3ea9-3">
          <mxGeometry relative="1" as="geometry" />
        </mxCell>
        <mxCell id="bhfGCaR0_jflt4qu3ea9-10" value="Update1" style="ellipse;whiteSpace=wrap;html=1;aspect=fixed;" vertex="1" parent="1">
          <mxGeometry x="80" y="360" width="80" height="80" as="geometry" />
        </mxCell>
        <mxCell id="bhfGCaR0_jflt4qu3ea9-14" style="edgeStyle=orthogonalEdgeStyle;rounded=0;orthogonalLoop=1;jettySize=auto;html=1;exitX=0.5;exitY=0;exitDx=0;exitDy=0;entryX=1;entryY=0.5;entryDx=0;entryDy=0;" edge="1" parent="1" source="bhfGCaR0_jflt4qu3ea9-11" target="bhfGCaR0_jflt4qu3ea9-3">
          <mxGeometry relative="1" as="geometry" />
        </mxCell>
        <mxCell id="bhfGCaR0_jflt4qu3ea9-11" value="Update1" style="ellipse;whiteSpace=wrap;html=1;aspect=fixed;" vertex="1" parent="1">
          <mxGeometry x="640" y="360" width="80" height="80" as="geometry" />
        </mxCell>
        <mxCell id="bhfGCaR0_jflt4qu3ea9-20" value="!dwait" style="text;html=1;align=center;verticalAlign=middle;resizable=0;points=[];autosize=1;strokeColor=none;fillColor=none;" vertex="1" parent="1">
          <mxGeometry x="165" y="520" width="50" height="20" as="geometry" />
        </mxCell>
        <mxCell id="bhfGCaR0_jflt4qu3ea9-21" value="!dwait" style="text;html=1;align=center;verticalAlign=middle;resizable=0;points=[];autosize=1;strokeColor=none;fillColor=none;" vertex="1" parent="1">
          <mxGeometry x="115" y="240" width="50" height="20" as="geometry" />
        </mxCell>
        <mxCell id="bhfGCaR0_jflt4qu3ea9-22" value="!dwait" style="text;html=1;align=center;verticalAlign=middle;resizable=0;points=[];autosize=1;strokeColor=none;fillColor=none;" vertex="1" parent="1">
          <mxGeometry x="635" y="240" width="50" height="20" as="geometry" />
        </mxCell>
        <mxCell id="bhfGCaR0_jflt4qu3ea9-23" value="!dwait" style="text;html=1;align=center;verticalAlign=middle;resizable=0;points=[];autosize=1;strokeColor=none;fillColor=none;" vertex="1" parent="1">
          <mxGeometry x="585" y="520" width="50" height="20" as="geometry" />
        </mxCell>
        <mxCell id="bhfGCaR0_jflt4qu3ea9-24" value="cctrans[1]" style="text;html=1;align=center;verticalAlign=middle;resizable=0;points=[];autosize=1;strokeColor=none;fillColor=none;" vertex="1" parent="1">
          <mxGeometry x="290" y="210" width="70" height="20" as="geometry" />
        </mxCell>
        <mxCell id="bhfGCaR0_jflt4qu3ea9-25" value="cctrans[0]" style="text;html=1;align=center;verticalAlign=middle;resizable=0;points=[];autosize=1;strokeColor=none;fillColor=none;" vertex="1" parent="1">
          <mxGeometry x="440" y="210" width="70" height="20" as="geometry" />
        </mxCell>
        <mxCell id="bhfGCaR0_jflt4qu3ea9-26" value="!snooping" style="text;html=1;align=center;verticalAlign=middle;resizable=0;points=[];autosize=1;strokeColor=none;fillColor=none;" vertex="1" parent="1">
          <mxGeometry x="365" y="330" width="70" height="20" as="geometry" />
        </mxCell>
        <mxCell id="bhfGCaR0_jflt4qu3ea9-27" value="ccwrite[0]&amp;amp;snooping" style="text;html=1;align=center;verticalAlign=middle;resizable=0;points=[];autosize=1;strokeColor=none;fillColor=none;" vertex="1" parent="1">
          <mxGeometry x="280" y="400" width="120" height="20" as="geometry" />
        </mxCell>
        <mxCell id="bhfGCaR0_jflt4qu3ea9-28" value="ccwrite[1]&amp;amp;snooping" style="text;html=1;align=center;verticalAlign=middle;resizable=0;points=[];autosize=1;strokeColor=none;fillColor=none;" vertex="1" parent="1">
          <mxGeometry x="400" y="380" width="120" height="20" as="geometry" />
        </mxCell>
      </root>
    </mxGraphModel>
  </diagram>
</mxfile>
